<?xml version="1.0" encoding="UTF-8"?>
<svg viewBox="0 0 200 200" xmlns="http://www.w3.org/2000/svg">
  <!-- 背景圆形 -->
  <defs>
    <linearGradient id="bgGradient" x1="0%" y1="0%" x2="100%" y2="100%">
      <stop offset="0%" style="stop-color:#3498db;stop-opacity:1" />
      <stop offset="100%" style="stop-color:#2980b9;stop-opacity:1" />
    </linearGradient>
    <!-- 光泽效果 -->
    <linearGradient id="shineGradient" x1="0%" y1="0%" x2="0%" y2="100%">
      <stop offset="0%" style="stop-color:#ffffff;stop-opacity:0.5" />
      <stop offset="100%" style="stop-color:#ffffff;stop-opacity:0" />
    </linearGradient>
    <!-- 阴影效果 -->
    <filter id="dropShadow" x="-20%" y="-20%" width="140%" height="140%">
      <feGaussianBlur in="SourceAlpha" stdDeviation="4" />
      <feOffset dx="2" dy="4" result="offsetblur" />
      <feComponentTransfer>
        <feFuncA type="linear" slope="0.3" />
      </feComponentTransfer>
      <feMerge>
        <feMergeNode />
        <feMergeNode in="SourceGraphic" />
      </feMerge>
    </filter>
  </defs>
  
  <!-- 主圆形背景 -->
  <circle cx="100" cy="100" r="85" fill="url(#bgGradient)" filter="url(#dropShadow)" />
  
  <!-- 光泽效果 -->
  <ellipse cx="80" cy="70" rx="70" ry="40" fill="url(#shineGradient)" opacity="0.3" />
  
  <!-- 新的中心图案：更大的图像转换符号 -->
  <g>
    <!-- 左侧图像表示 -->
    <rect x="40" y="60" width="50" height="50" rx="5" fill="#ECF0F1" stroke="#2C3E50" stroke-width="3" />
    <line x1="40" y1="75" x2="90" y2="75" stroke="#2C3E50" stroke-width="2" />
    <circle cx="50" cy="67" r="3" fill="#2C3E50" />
    
    <!-- 山峰和太阳图案（左侧图像内容） -->
    <path d="M45,95 L55,80 L65,90 L80,70 L90,90" stroke="#2C3E50" stroke-width="3" fill="none" stroke-linejoin="round" stroke-linecap="round" />
    <circle cx="75" cy="65" r="6" fill="#E74C3C" />
    
    <!-- 右侧图像表示 -->
    <rect x="110" y="90" width="50" height="50" rx="5" fill="#ECF0F1" stroke="#2C3E50" stroke-width="3" />
    <line x1="110" y1="105" x2="160" y2="105" stroke="#2C3E50" stroke-width="2" />
    <circle cx="120" cy="97" r="3" fill="#2C3E50" />
    
    <!-- 不同样式的图形（右侧图像内容） -->
    <path d="M120,125 C125,115 140,140 145,125 S155,110 160,125" stroke="#2C3E50" stroke-width="3" fill="none" stroke-linejoin="round" stroke-linecap="round" />
    <rect x="125" y="115" width="10" height="10" fill="#27AE60" />
    
    <!-- 全新的箭头设计 -->
    <g transform="translate(100,100) scale(0.85) translate(-100,-100)">
      <!-- 左右双向转换箭头 -->
      <circle cx="100" cy="100" r="14" fill="#ECF0F1" stroke="#2C3E50" stroke-width="2" />
      
      <!-- 双箭头符号 -->
      <path d="M92,100 L108,100" stroke="#2C3E50" stroke-width="2.5" stroke-linecap="round" />
      
      <!-- 左箭头 -->
      <path d="M97,95 L92,100 L97,105" stroke="#2C3E50" stroke-width="2.5" fill="none" stroke-linecap="round" stroke-linejoin="round" />
      
      <!-- 右箭头 -->
      <path d="M103,95 L108,100 L103,105" stroke="#2C3E50" stroke-width="2.5" fill="none" stroke-linecap="round" stroke-linejoin="round" />
    </g>
  </g>
</svg>